{"title":"Formula.1.2016x11.Hungary.Qualifying.SkyF1HD.1080p50","uid":15395685,"size":9611014582,"categoryP":"video","categoryS":"hd___tv_shows","magnet":"?xt=urn:btih:a1d3d5b74bccf37cf233bdedd8a1f9e7dfbc659a&amp;dn=Formula.1.2016x11.Hungary.Qualifying.SkyF1HD.1080p50&amp;tr=udp%3A%2F%2Ftracker.leechers-paradise.org%3A6969&amp;tr=udp%3A%2F%2Fzer0day.ch%3A1337&amp;tr=udp%3A%2F%2Fopen.demonii.com%3A1337&amp;tr=udp%3A%2F%2Ftracker.coppersurfer.tk%3A6969&amp;tr=udp%3A%2F%2Fexodus.desync.com%3A6969","seeders":4,"leechers":2,"uploader":"smcgill1969","files":3,"time":1469392071,"description":"Qualyfying for the 2016 Hungarian Grand Prix from the Hungaroring, Mogyoród.\r\n\r\nVideo\r\nID                                       : 1\r\nFormat                                   : AVC\r\nFormat/Info                              : Advanced Video Codec\r\nFormat profile                           :   \r\nFormat settings, CABAC                   : Yes\r\nFormat settings, ReFrames                : 2 frames\r\nFormat settings, GOP                     : M=3, N=24\r\nCodec ID                                 : avc1\r\nCodec ID/Info                            : Advanced Video Coding\r\nDuration                                 : 55mn 2s\r\nDuration_FirstFrame                      : 7ms\r\nDuration_LastFrame                       : 7ms\r\nBit rate mode                            : Variable\r\nBit rate                                 : 5 994 Kbps\r\nMaximum bit rate                         : 12.4 Mbps\r\nWidth                                    : 1 920 pixels\r\nHeight                                   : 1 080 pixels\r\nOriginal height                          : 1 088 pixels\r\nDisplay aspect ratio                     : 16:9\r\nOriginal display aspect ratio            : 16:9\r\nFrame rate mode                          : Constant\r\nFrame rate                               : 50.000 fps\r\nColor space                              : YUV\r\nChroma subsampling                       : 4:2:0\r\nBit depth                                : 8 bits\r\nScan type                                : Progressive\r\nBits/(Pixel*Frame)                       : 0.058\r\nStream size                              : 2.30 GiB (96%)\r\nLanguage                                 : English\r\nEncoded date                             : UTC 2016-07-23 12:16:20\r\nTagged date                              : UTC 2016-07-23 14:25:09\r\n\r\nAudio\r\nID                                       : 2\r\nFormat                                   : AAC\r\nFormat/Info                              : Advanced Audio Codec\r\nFormat profile                           : LC\r\nCodec ID                                 : 40\r\nDuration                                 : 55mn 2s\r\nBit rate mode                            : Constant\r\nBit rate                                 : 256 Kbps\r\nChannel(s)                               : 2 channels\r\nChannel positions                        : Front: L R\r\nSampling rate                            : 48.0 KHz\r\nFrame rate                               : 46.875 fps (1024 spf)\r\nCompression mode                         : Lossy\r\nStream size                              : 99.7 MiB (4%)\r\nLanguage                                 : English\r\nEncoded date                             : UTC 2016-07-23 12:16:20\r\nTagged date                              : UTC 2016-07-23 14:25:09","torrent":{"xt":"urn:btih:a1d3d5b74bccf37cf233bdedd8a1f9e7dfbc659a","amp;dn":"Formula.1.2016x11.Hungary.Qualifying.SkyF1HD.1080p50","amp;tr":["udp%3A%2F%2Ftracker.leechers-paradise.org%3A6969","udp%3A%2F%2Fzer0day.ch%3A1337","udp%3A%2F%2Fopen.demonii.com%3A1337","udp%3A%2F%2Ftracker.coppersurfer.tk%3A6969","udp%3A%2F%2Fexodus.desync.com%3A6969"],"infoHash":"a1d3d5b74bccf37cf233bdedd8a1f9e7dfbc659a","infoHashBuffer":{"type":"Buffer","data":[161,211,213,183,75,204,243,124,242,51,189,237,216,161,249,231,223,188,101,154]},"announce":[],"urlList":[]}}